<svg width="42" height="8" viewBox="0 0 42 8" fill="none" xmlns="http://www.w3.org/2000/svg">
<g clip-path="url(#clip0_5_363)">
<path d="M0 0.239584C0 0.106973 0.104336 0 0.233678 0H3.25339C4.9676 0 6.07822 1.1272 6.07822 2.63631C6.07822 4.14543 4.96846 5.23903 3.25339 5.23903H1.57194V7.64814C1.57194 7.77987 1.4676 7.88772 1.33826 7.88772H0.233678C0.105198 7.88772 0 7.78075 0 7.64814V0.239584ZM3.25339 3.8086C3.97857 3.8086 4.4511 3.30114 4.4511 2.6257C4.4511 1.95027 3.97857 1.43132 3.25339 1.43132H1.57194V3.8086H3.25339Z" fill="#383838"/>
<path d="M8.515 4.46193L9.4385 4.37175C9.79031 4.34965 9.96622 4.21439 9.96622 3.90938C9.96622 3.48149 9.57043 3.21096 9.04272 3.21096C8.44947 3.21096 8.06489 3.53807 7.96573 4.08973L6.49295 3.75201C6.64644 2.74947 7.58115 1.96088 9.03151 1.96088C10.4051 1.96088 11.4493 2.68228 11.4493 4.21438V7.64813C11.4493 7.77986 11.345 7.88772 11.2157 7.88772H10.199C10.0706 7.88772 9.96536 7.78075 9.96536 7.64813V7.17781C9.56957 7.66228 8.93234 8 8.17354 8C7.1181 8 6.32739 7.35727 6.32739 6.33263C6.32739 5.00298 7.45957 4.57509 8.51414 4.46193H8.515ZM8.53742 6.79412C9.31778 6.79412 9.96622 6.15139 9.96622 5.45297V5.3292C9.86706 5.40789 9.70236 5.44148 9.46092 5.47596L8.50465 5.58824C8.0761 5.64482 7.81224 5.87026 7.81224 6.20798C7.81224 6.54569 8.08731 6.79412 8.53742 6.79412Z" fill="#383838"/>
<path d="M12.7824 2.07315H13.799C13.9275 2.07315 14.0327 2.18013 14.0327 2.31274V2.82815C14.4285 2.29859 15.0545 1.96088 15.8021 1.96088C17.1645 1.96088 18.088 2.97491 18.088 4.36114V7.64902C18.088 7.78075 17.9837 7.8886 17.8544 7.8886H16.8377C16.7092 7.8886 16.604 7.78163 16.604 7.64902V4.63167C16.604 3.87667 16.0772 3.34711 15.3192 3.34711C14.6061 3.34711 14.0327 3.95447 14.0327 4.68648V7.64902C14.0327 7.78075 13.9284 7.8886 13.799 7.8886H12.7824C12.6539 7.8886 12.5487 7.78163 12.5487 7.64902V2.31274C12.5487 2.18101 12.6531 2.07315 12.7824 2.07315Z" fill="#383838"/>
<path d="M21.8674 1.96088C23.6972 1.96088 24.9975 3.4638 24.8181 5.30445C24.8061 5.42734 24.7052 5.52193 24.5853 5.52193H20.4171C20.6145 6.20886 21.1862 6.69422 21.9666 6.69422C22.5115 6.69422 22.9789 6.45552 23.2695 6.04884C23.3359 5.95601 23.454 5.91977 23.5566 5.96751L24.3508 6.3344C24.4819 6.39452 24.531 6.56337 24.45 6.68449C23.9274 7.46867 23.0436 8.00088 21.9226 8.00088C20.1972 8.00088 18.8891 6.69422 18.8891 4.98088C18.8891 3.26754 20.1748 1.96088 21.8674 1.96088ZM23.3066 4.36114C23.1091 3.70781 22.5702 3.26842 21.8666 3.26842C21.1629 3.26842 20.6464 3.70781 20.4378 4.36114H23.3057H23.3066Z" fill="#383838"/>
<path d="M25.8805 0.0291748H26.8972C27.0256 0.0291748 27.1308 0.136148 27.1308 0.268759V7.64902C27.1308 7.78075 27.0265 7.88861 26.8972 7.88861H25.8805C25.7521 7.88861 25.6469 7.78163 25.6469 7.64902V0.268759C25.6469 0.137032 25.7512 0.0291748 25.8805 0.0291748Z" fill="#383838"/>
<path d="M28.3156 0.239584C28.3156 0.107857 28.4199 0 28.5493 0H31.6682C33.0745 0 33.9868 0.923859 33.9868 2.16333C33.9868 2.87325 33.6902 3.47088 33.1625 3.85368C33.8877 4.20289 34.3162 4.90131 34.3162 5.74649C34.3162 6.98596 33.4039 7.88684 31.9976 7.88684H28.5493C28.4208 7.88684 28.3156 7.77986 28.3156 7.64725V0.239584ZM31.5138 3.27904C32.1407 3.27904 32.5356 2.86175 32.5356 2.32158C32.5356 1.78141 32.1398 1.38623 31.5138 1.38623H29.8436V3.27904H31.5138ZM31.7225 6.50149C32.3494 6.50149 32.7339 6.0957 32.7339 5.55465C32.7339 5.01359 32.3494 4.6078 31.7225 4.6078H29.8436V6.50061H31.7225V6.50149Z" fill="url(#paint0_linear_5_363)"/>
<path d="M36.6805 2.31277V5.38758C36.6805 6.04445 37.1902 6.59258 37.8308 6.60318C38.525 6.61468 39.032 6.15054 39.032 5.43178V2.31277C39.032 2.18104 39.1363 2.07318 39.2657 2.07318H40.516V5.4309C40.516 6.963 39.395 8.00002 37.8567 8.00002C36.3184 8.00002 35.1974 6.963 35.1974 5.4309V2.31277C35.1974 2.18104 35.3018 2.07318 35.4311 2.07318H36.4477C36.5762 2.07318 36.6814 2.18015 36.6814 2.31277H36.6805Z" fill="url(#paint1_linear_5_363)"/>
<path d="M40.6324 0.551666H41.8827C41.9474 0.551666 41.9991 0.605595 41.9991 0.671016V1.95293C41.9991 2.01923 41.9465 2.07228 41.8827 2.07228H40.516V0.671901C40.516 0.605595 40.5686 0.55255 40.6324 0.55255V0.551666Z" fill="url(#paint2_linear_5_363)"/>
</g>
<defs>
<linearGradient id="paint0_linear_5_363" x1="38.8924" y1="-4.37971" x2="21.3887" y2="12.6925" gradientUnits="userSpaceOnUse">
<stop stop-color="#3F93FF"/>
<stop offset="1" stop-color="#003EB0"/>
</linearGradient>
<linearGradient id="paint1_linear_5_363" x1="42.6993" y1="-0.598495" x2="24.9959" y2="16.6685" gradientUnits="userSpaceOnUse">
<stop stop-color="#3F93FF"/>
<stop offset="1" stop-color="#003EB0"/>
</linearGradient>
<linearGradient id="paint2_linear_5_363" x1="44.6007" y1="-1.81854" x2="35.4509" y2="6.33502" gradientUnits="userSpaceOnUse">
<stop stop-color="#3F93FF"/>
<stop offset="1" stop-color="#003EB0"/>
</linearGradient>
<clipPath id="clip0_5_363">
<rect width="42" height="8" fill="white"/>
</clipPath>
</defs>
</svg>
