<svg width="99" height="26" viewBox="0 0 99 26" fill="none" xmlns="http://www.w3.org/2000/svg">
<g clip-path="url(#clip0_5_337)">
<path d="M28.4844 9.01777C28.3457 8.87371 28.1963 8.75119 28.0374 8.64618L25.6301 13.5064L25.3892 13.9952C24.992 14.7976 24.5948 15.6 24.1977 16.4024C23.9203 16.9638 23.5204 17.427 23.0385 17.8228C22.2387 18.4798 21.3286 18.8999 20.3135 19.0897C20.0106 19.1462 19.6995 19.1637 19.4047 19.1987C18.9389 19.1557 18.4878 19.1126 18.0368 19.0722C17.6047 19.0331 17.1725 18.9578 16.743 18.9672C15.814 18.9887 15.0453 19.3684 14.5202 20.1506C14.3156 20.4562 14.1782 20.8076 14.0126 21.1402C13.8134 21.5387 13.6101 21.9358 13.4202 22.3371C13.2264 22.7504 12.9383 23.0735 12.5532 23.3131C12.0766 23.6093 11.5623 23.7696 10.9982 23.7305C10.6051 23.7036 10.2133 23.6538 9.82149 23.6161L9.50376 23.5851V23.5878L4.20593 23.0587C4.25709 23.678 4.54656 24.1883 5.06893 24.5908C5.5038 24.9247 6.00598 25.1105 6.54586 25.1711C7.61889 25.2936 8.69327 25.3946 9.76764 25.505C9.95209 25.5238 10.1365 25.544 10.3223 25.5629H10.7101C10.7316 25.5575 10.7518 25.5494 10.772 25.5467C11.0224 25.5171 11.2755 25.505 11.5219 25.4565C12.6744 25.2303 13.6936 24.7322 14.5592 23.9298C14.9281 23.5878 15.2432 23.2014 15.4707 22.749C15.7831 22.127 16.0954 21.5037 16.4051 20.879C16.4347 20.8197 16.467 20.8022 16.5303 20.809C16.8615 20.844 17.1927 20.8736 17.5239 20.9099C18.1445 20.9786 18.7652 21.0203 19.3912 20.9665C20.0954 20.9059 20.7807 20.7632 21.4511 20.5424C22.1108 20.3243 22.7423 20.0416 23.3414 19.6861C24.0792 19.2472 24.7523 18.7289 25.3313 18.0948C25.6867 17.7057 26.0071 17.2883 26.2481 16.8211C26.5659 16.2045 26.8661 15.5798 27.173 14.9591C27.7075 13.878 28.2407 12.7969 28.7752 11.7172C28.961 11.3415 29.0741 10.9471 29.0795 10.5257C29.0862 9.94405 28.8937 9.43782 28.4871 9.01777H28.4844Z" fill="url(#paint0_linear_5_337)"/>
<path d="M26.3854 5.49842C26.2441 5.34764 26.0906 5.22108 25.925 5.11337L24.5275 7.93933L24.5234 7.94875C24.4857 8.03223 24.4454 8.11435 24.405 8.19513C23.7655 9.49031 23.1233 10.7828 22.4837 12.078C22.0812 12.8925 21.68 13.7084 21.2801 14.5229C21.027 15.0372 20.6096 15.3724 20.0994 15.6067C19.5757 15.849 19.0317 15.8612 18.469 15.7965C17.5642 15.6942 16.6568 15.6134 15.7494 15.5259C15.3886 15.4909 15.0291 15.4438 14.6683 15.433C14.1526 15.4182 13.6774 15.5811 13.2371 15.8437C12.9248 16.0281 12.6528 16.2597 12.4549 16.5666C12.3701 16.6986 12.2987 16.8399 12.2287 16.9813C11.7023 18.0368 11.1772 19.0937 10.6535 20.1506C10.5485 20.3633 10.5485 20.3646 10.3156 20.3418C9.63971 20.2758 8.96385 20.2098 8.28934 20.1425C7.39537 20.0536 6.50141 19.9634 5.60744 19.8746C5.56705 19.8705 5.52666 19.8652 5.48627 19.8598L2.11505 19.5245C2.11505 19.5245 2.1164 19.534 2.1164 19.538C2.14736 19.8746 2.25103 20.1883 2.43279 20.4724C2.74514 20.9584 3.1975 21.2653 3.732 21.4633C4.08608 21.5939 4.45498 21.6531 4.82926 21.6881C5.57244 21.7608 6.31427 21.8375 7.05744 21.9116C8.00257 22.0058 8.94905 22.096 9.89283 22.1984C10.3358 22.2468 10.7693 22.2482 11.192 22.0893C11.7844 21.8672 12.2503 21.5077 12.5357 20.9234C13.1173 19.7292 13.7151 18.5417 14.3034 17.3529C14.3344 17.291 14.3653 17.2694 14.4354 17.2789C14.6629 17.3071 14.8918 17.3273 15.1193 17.3502C16.0011 17.4377 16.883 17.5158 17.7621 17.6141C18.8136 17.7312 19.8126 17.5562 20.7752 17.1361C21.3421 16.8898 21.8604 16.5653 22.3262 16.1587C22.7113 15.8208 23.0546 15.4438 23.2983 14.9901C23.4908 14.6333 23.6645 14.2671 23.8449 13.9022C24.3444 12.8925 24.8425 11.8787 25.342 10.869C25.758 10.0275 26.1781 9.18873 26.5941 8.34727C26.7368 8.05781 26.8647 7.76161 26.924 7.44118C27.0613 6.70474 26.9091 6.04773 26.3881 5.49708L26.3854 5.49842Z" fill="url(#paint1_linear_5_337)"/>
<path d="M11.5623 3.38066C11.0022 3.31738 10.4745 3.37527 9.98576 3.66877C9.68014 3.85187 9.42165 4.0794 9.25605 4.39848C9.13084 4.64082 9.01236 4.8872 8.89119 5.13089C7.57717 7.76432 6.26449 10.3977 4.94912 13.0312C4.4079 14.115 3.86532 15.1988 3.3241 16.2826C3.03733 16.8561 2.75056 17.4283 2.46379 18.0018C2.45033 18.0301 2.43686 18.057 2.4234 18.0867C2.45167 18.0907 2.47995 18.0934 2.50822 18.0974C3.1935 18.1701 3.88148 18.2361 4.56811 18.3034C4.57888 18.2805 4.591 18.2563 4.60177 18.2334C4.88854 17.6558 5.178 17.0796 5.46612 16.502C5.73673 15.9595 6.00869 15.4169 6.2793 14.873C7.17058 13.0864 8.0605 11.3025 8.95043 9.5159C9.64648 8.11975 10.3412 6.72495 11.0319 5.32611C11.0776 5.23456 11.1261 5.2009 11.223 5.22109C11.2796 5.23321 11.3388 5.23456 11.3967 5.23994C12.6502 5.36246 13.9049 5.48498 15.1597 5.60615C16.4912 5.73539 17.8228 5.86464 19.1543 5.99389C19.9379 6.07063 20.7228 6.14603 21.5063 6.22277C22.1701 6.28739 22.8338 6.35067 23.4976 6.41529C23.5528 6.42068 23.6093 6.42876 23.6632 6.43818C23.9567 5.84175 24.2488 5.24667 24.5396 4.6489C24.125 4.5937 23.7036 4.56274 23.2875 4.51965C22.9887 4.49004 22.6898 4.46042 22.3895 4.43214C21.711 4.36483 21.0324 4.29886 20.3539 4.23289C19.1179 4.11441 17.8834 3.99593 16.6488 3.87611" fill="url(#paint2_linear_5_337)"/>
<path d="M24.0037 1.67883C23.5513 1.32205 23.0195 1.14164 22.4527 1.07702C21.7486 0.996237 21.0445 0.934305 20.3403 0.864296C19.099 0.743126 17.8564 0.624649 16.615 0.504825C15.9109 0.436162 15.2068 0.367499 14.5013 0.298836C13.6491 0.216709 12.7968 0.137276 11.9446 0.0511103C11.4263 -0.00139676 10.9093 -0.0310161 10.3882 0.0443786C9.7972 0.129198 9.23039 0.29345 8.68782 0.541176C8.10216 0.80775 7.56497 1.15107 7.09106 1.58997C6.73698 1.91982 6.42463 2.28333 6.20248 2.71416C5.85513 3.39137 5.51855 4.07396 5.17927 4.7552C4.23818 6.64007 3.2971 8.52628 2.35601 10.4125C1.66803 11.7898 0.980054 13.1658 0.296117 14.5444C0.150713 14.8352 0.0510838 15.1422 0.0147328 15.4653C-0.0795106 16.3175 0.215337 17.0068 0.903313 17.5184C1.35299 17.8537 1.87133 18.0193 2.42063 18.0866C2.4489 18.0906 2.47718 18.0933 2.50545 18.0974C3.19074 18.1701 3.87871 18.236 4.56534 18.3034C4.67036 18.3141 4.77402 18.3249 4.87904 18.3343C5.86859 18.4326 6.8595 18.5322 7.84905 18.6332C8.03754 18.6521 8.22468 18.6763 8.41317 18.6992H8.62723C8.638 18.6938 8.64877 18.6844 8.65954 18.6844C8.9719 18.6628 9.26001 18.5619 9.52928 18.4124C9.81066 18.2562 10.0624 18.0543 10.2105 17.7675C10.5646 17.0795 10.9025 16.3835 11.2432 15.6888C11.3926 15.3845 11.5555 15.091 11.7992 14.846C12.09 14.5552 12.4279 14.3303 12.8036 14.1661C13.2411 13.9762 13.6975 13.8712 14.1768 13.9009C14.3936 13.9143 14.609 13.9399 14.8231 13.9601C15.923 14.0678 17.023 14.1742 18.1229 14.2872C18.4986 14.3263 18.8675 14.3371 19.2283 14.197C19.6901 14.0166 20.0576 13.7366 20.2811 13.2802C20.6702 12.4805 21.0647 11.6834 21.4578 10.8864C21.8873 10.0167 22.3181 9.14694 22.7489 8.27587C23.0519 7.66194 23.3575 7.04801 23.6604 6.43408C23.9539 5.83766 24.2461 5.24258 24.5369 4.6448C24.5436 4.62999 24.5517 4.61384 24.5598 4.59768C24.6742 4.36073 24.7617 4.10492 24.8115 3.84777C24.9798 2.96727 24.7078 2.23486 24.0024 1.67614L24.0037 1.67883ZM20.0603 9.14829C19.5352 10.2119 19.0088 11.2755 18.4851 12.3391C18.4514 12.4064 18.4191 12.4293 18.3397 12.4212C17.3232 12.3176 16.3067 12.2247 15.2902 12.1183C14.3263 12.016 13.3973 12.1587 12.4953 12.4926C11.5757 12.8332 10.7585 13.3421 10.0678 14.0449C9.63833 14.4811 9.31925 14.9914 9.06075 15.5434C8.87092 15.95 8.66358 16.3485 8.46029 16.7483C8.44817 16.7739 8.39432 16.7941 8.36201 16.7914C7.5542 16.712 6.74775 16.6299 5.93995 16.5491C5.78108 16.5343 5.62356 16.5181 5.46469 16.502C4.77672 16.4333 4.09009 16.366 3.40211 16.2933C3.37518 16.2906 3.34826 16.2866 3.32133 16.2825C3.03456 16.2408 2.77337 16.1304 2.56873 15.9082C2.30485 15.6201 2.26715 15.2849 2.3762 14.9241C2.3964 14.8554 2.42332 14.7894 2.45564 14.7262C2.94032 13.7514 3.42634 12.778 3.91237 11.8033C4.54649 10.5323 5.18062 9.26138 5.81339 7.99044C6.63466 6.34388 7.45592 4.69596 8.27584 3.04805C8.46702 2.66435 8.77129 2.39104 9.13211 2.17563C9.54139 1.93059 9.98568 1.79865 10.535 1.79057C10.7962 1.81615 11.1287 1.84712 11.4599 1.87943C12.3027 1.96156 13.1455 2.04234 13.9883 2.12446C14.6804 2.19044 15.371 2.2591 16.063 2.32642C16.9058 2.40854 17.7486 2.48798 18.5915 2.5701C19.2835 2.63742 19.9741 2.70474 20.6662 2.7734C20.9529 2.80167 21.2397 2.82456 21.5238 2.8636C21.8146 2.90399 22.0758 3.01574 22.2818 3.23384C22.5524 3.51927 22.6183 3.96221 22.4366 4.33515C22.4218 4.36746 22.4056 4.39977 22.3895 4.43208C22.1579 4.90734 21.9236 5.3799 21.6894 5.85381C21.6288 5.97633 21.5682 6.10019 21.5076 6.22271C21.0256 7.19745 20.5436 8.17354 20.0616 9.14829H20.0603Z" fill="url(#paint3_linear_5_337)"/>
<path d="M33.4227 5.44594C33.4227 5.24534 33.5856 5.08109 33.7876 5.08109H38.5024C41.179 5.08109 42.913 6.79766 42.913 9.09585C42.913 11.394 41.1803 13.0595 38.5024 13.0595H35.8771V16.7282C35.8771 16.9288 35.7142 17.0931 35.5122 17.0931H33.7876C33.587 17.0931 33.4227 16.9302 33.4227 16.7282V5.44594ZM38.5024 10.8824C39.6347 10.8824 40.3725 10.1096 40.3725 9.08104C40.3725 8.05244 39.6347 7.26215 38.5024 7.26215H35.8771V10.8824H38.5024Z" fill="#383838"/>
<path d="M46.7191 11.8774L48.161 11.74C48.7103 11.7064 48.985 11.5004 48.985 11.0359C48.985 10.3843 48.367 9.97229 47.5431 9.97229C46.6168 9.97229 46.0163 10.4704 45.8615 11.3105L43.562 10.7962C43.8016 9.2695 45.261 8.06857 47.5256 8.06857C49.6703 8.06857 51.3007 9.16718 51.3007 11.5004V16.7295C51.3007 16.9301 51.1378 17.0944 50.9358 17.0944H49.3485C49.1479 17.0944 48.9836 16.9315 48.9836 16.7295V16.0133C48.3657 16.7511 47.3707 17.2654 46.186 17.2654C44.5381 17.2654 43.3035 16.2866 43.3035 14.7262C43.3035 12.7013 45.0712 12.0497 46.7178 11.8774H46.7191ZM46.7528 15.429C47.9712 15.429 48.9836 14.4502 48.9836 13.3866V13.1981C48.8288 13.3179 48.5717 13.3691 48.1947 13.4216L46.7016 13.5926C46.0325 13.6787 45.6205 14.0221 45.6205 14.5364C45.6205 15.0507 46.05 15.429 46.7528 15.429Z" fill="#383838"/>
<path d="M53.3808 8.23956H54.9681C55.1687 8.23956 55.333 8.40246 55.333 8.60441V9.38933C55.9509 8.58287 56.9284 8.06857 58.0957 8.06857C60.2229 8.06857 61.6648 9.61282 61.6648 11.7239V16.7309C61.6648 16.9315 61.5019 17.0957 61.2999 17.0957H59.7126C59.512 17.0957 59.3477 16.9328 59.3477 16.7309V12.1358C59.3477 10.9861 58.5251 10.1796 57.3417 10.1796C56.2283 10.1796 55.333 11.1046 55.333 12.2193V16.7309C55.333 16.9315 55.1701 17.0957 54.9681 17.0957H53.3808C53.1802 17.0957 53.0159 16.9328 53.0159 16.7309V8.60576C53.0159 8.40516 53.1788 8.2409 53.3808 8.2409V8.23956Z" fill="#383838"/>
<path d="M67.5658 8.06857C70.4227 8.06857 72.453 10.3573 72.1729 13.1604C72.1541 13.3475 71.9966 13.4916 71.8094 13.4916H65.3012C65.6095 14.5377 66.5022 15.2768 67.7206 15.2768C68.5715 15.2768 69.3012 14.9133 69.7549 14.294C69.8586 14.1527 70.043 14.0975 70.2032 14.1702L71.4432 14.7289C71.6479 14.8204 71.7246 15.0776 71.598 15.262C70.7822 16.4562 69.4022 17.2667 67.6519 17.2667C64.9579 17.2667 62.9155 15.2768 62.9155 12.6677C62.9155 10.0585 64.9229 8.06857 67.5658 8.06857ZM69.8141 11.7225C69.5058 10.7276 68.6644 10.0585 67.5658 10.0585C66.4672 10.0585 65.6607 10.7276 65.3349 11.7225H69.8128H69.8141Z" fill="#383838"/>
<path d="M73.8316 5.12683H75.4189C75.6195 5.12683 75.7838 5.28974 75.7838 5.49169V16.7309C75.7838 16.9315 75.6209 17.0957 75.4189 17.0957H73.8316C73.631 17.0957 73.4667 16.9328 73.4667 16.7309V5.49034C73.4667 5.28974 73.6296 5.12549 73.8316 5.12549V5.12683Z" fill="#383838"/>
<path d="M77.6337 5.44594C77.6337 5.24534 77.7966 5.08109 77.9985 5.08109H82.8682C85.0641 5.08109 86.4885 6.488 86.4885 8.37556C86.4885 9.45667 86.0254 10.3668 85.2014 10.9498C86.3337 11.4816 87.0028 12.5452 87.0028 13.8323C87.0028 15.7198 85.5784 17.0917 83.3825 17.0917H77.9985C77.7979 17.0917 77.6337 16.9288 77.6337 16.7269V5.44594ZM82.6272 10.076C83.606 10.076 84.2226 9.44052 84.2226 8.61791C84.2226 7.7953 83.6047 7.19348 82.6272 7.19348H80.0194V10.076H82.6272ZM82.953 14.9834C83.9318 14.9834 84.5323 14.3654 84.5323 13.5414C84.5323 12.7175 83.9318 12.0995 82.953 12.0995H80.0194V14.982H82.953V14.9834Z" fill="url(#paint4_linear_5_337)"/>
<path d="M90.6944 8.60308V13.2856C90.6944 14.286 91.4901 15.1207 92.4904 15.1368C93.5742 15.1543 94.3659 14.4475 94.3659 13.3529V8.60308C94.3659 8.40248 94.5288 8.23822 94.7307 8.23822H96.6829V13.3516C96.6829 15.6848 94.9327 17.264 92.5308 17.264C90.129 17.264 88.3787 15.6848 88.3787 13.3516V8.60173C88.3787 8.40113 88.5416 8.23688 88.7436 8.23688H90.3309C90.5315 8.23688 90.6958 8.39978 90.6958 8.60173L90.6944 8.60308Z" fill="url(#paint5_linear_5_337)"/>
<path d="M96.866 5.92255H98.8182C98.9192 5.92255 99 6.00467 99 6.1043V8.05649C99 8.15746 98.9178 8.23824 98.8182 8.23824H96.6843V6.1043C96.6843 6.00333 96.7664 5.92255 96.866 5.92255Z" fill="url(#paint6_linear_5_337)"/>
</g>
<defs>
<linearGradient id="paint0_linear_5_337" x1="29.2006" y1="3.67551" x2="6.24967" y2="30.5578" gradientUnits="userSpaceOnUse">
<stop offset="0.07" stop-color="#CCEAF8"/>
<stop offset="0.52" stop-color="#9CC3FF"/>
</linearGradient>
<linearGradient id="paint1_linear_5_337" x1="29.0646" y1="-0.216763" x2="4.7431" y2="25.8887" gradientUnits="userSpaceOnUse">
<stop offset="0.07" stop-color="#CCEAF8"/>
<stop offset="0.52" stop-color="#9CC3FF"/>
</linearGradient>
<linearGradient id="paint2_linear_5_337" x1="27.4612" y1="-5.63574" x2="-31.7425" y2="53.5693" gradientUnits="userSpaceOnUse">
<stop offset="0.07" stop-color="#CCEAF8"/>
<stop offset="0.52" stop-color="#9CC3FF"/>
</linearGradient>
<linearGradient id="paint3_linear_5_337" x1="31.7653" y1="-10.5755" x2="-5.65199" y2="26.8418" gradientUnits="userSpaceOnUse">
<stop stop-color="#3F93FF"/>
<stop offset="1" stop-color="#003EB0"/>
</linearGradient>
<linearGradient id="paint4_linear_5_337" x1="94.1491" y1="-1.58865" x2="67.4836" y2="25.0768" gradientUnits="userSpaceOnUse">
<stop stop-color="#3F93FF"/>
<stop offset="1" stop-color="#003EB0"/>
</linearGradient>
<linearGradient id="paint5_linear_5_337" x1="100.092" y1="4.17095" x2="73.1234" y2="31.1394" gradientUnits="userSpaceOnUse">
<stop stop-color="#3F93FF"/>
<stop offset="1" stop-color="#003EB0"/>
</linearGradient>
<linearGradient id="paint6_linear_5_337" x1="103.061" y1="2.31302" x2="89.0909" y2="15.0763" gradientUnits="userSpaceOnUse">
<stop stop-color="#3F93FF"/>
<stop offset="1" stop-color="#003EB0"/>
</linearGradient>
<clipPath id="clip0_5_337">
<rect width="99" height="25.5628" fill="white"/>
</clipPath>
</defs>
</svg>
